<svg xmlns="http://www.w3.org/2000/svg" viewBox="0 0 64 64">
  <rect width="64" height="64" rx="12" fill="#191c1b" />
  <g fill="#56dbc5">
    <path d="M42 7a1.5 1.5 0 0 1 2.56-1.06l14 14a1.5 1.5 0 0 1 0 2.12l-14 14A1.5 1.5 0 0 1 42 35v-8H18L8.56 36.44A1.5 1.5 0 0 1 6 35.38V19a5 5 0 0 1 5-5h31Z" />
    <path d="M42 7a1.5 1.5 0 0 1 2.56-1.06l14 14a1.5 1.5 0 0 1 0 2.12l-14 14A1.5 1.5 0 0 1 42 35v-8H18L8.56 36.44A1.5 1.5 0 0 1 6 35.38V19a5 5 0 0 1 5-5h31Z" transform="rotate(180 32 32)" />
  </g>
</svg>
